<svg width="482" height="358" viewBox="0 0 482 358" fill="none" xmlns="http://www.w3.org/2000/svg">
<path fill-rule="evenodd" clip-rule="evenodd" d="M124.538 0C125.099 0.224393 125.66 0.448786 126.221 0.67318C126.277 7.46029 126.333 14.2482 126.389 21.0369C127.998 30.8395 128.949 39.5567 131.943 47.6275C141.783 74.1543 160.641 92.5425 186.807 102.828C195.153 106.109 206.929 105.78 214.913 109.055L228.208 115.619L235.276 119.994C231.116 111.416 228.545 102.495 228.545 89.1963V80.7816C228.768 77.584 228.993 74.3864 229.218 71.1888C229.884 67.0655 231.013 61.4347 230.059 56.5471C229.403 53.18 228.104 49.7345 226.525 47.1226C225.009 44.615 221.638 41.587 221.644 38.3712C221.934 37.9364 222 37.7979 222.486 37.5298C222.917 37.1413 223.167 37.0737 224.001 37.0249C227.237 38.4327 229.297 41.5184 231.237 44.2616C236.313 51.435 237.341 63.7922 235.445 75.901C235.389 79.8279 235.333 83.7548 235.276 87.6817C236.634 96.1974 236.683 103.848 239.315 110.738C243.994 122.986 251.237 131.424 260.689 138.843C262.973 140.637 270.268 143.766 268.094 147.595C263.637 148.686 258.9 144.487 255.977 142.546C246.961 136.561 239.245 129.419 229.891 123.865C222.886 119.706 214.83 116.691 205.993 114.441C196.505 112.024 187.168 111.445 179.066 108.214C156.408 99.1775 140.966 81.8198 129.251 61.7642C122.854 50.8136 117.865 32.5464 120.836 14.9782C121.66 10.0977 121.002 2.15805 124.538 0ZM103.165 247.73C103.028 261.12 110.068 270.571 119.658 274.321C134.225 280.016 150.614 272.584 153.653 260.689H173.007V260.857C167.899 274.94 161.341 283.951 147.595 289.299C144.397 290.543 140.681 291.004 136.992 291.655C132.739 292.406 126.477 292.04 122.687 291.319C101.817 287.345 90.9903 276.929 85.6621 257.491C83.6089 250 82.8398 236.569 85.3255 228.713C83.8664 229.667 82.4079 230.621 80.9499 231.574C77.5537 233.56 73.2133 234.921 69.0009 235.949C63.294 237.341 56.3485 237.128 49.3104 237.128H21.71V289.131H0V159.039H37.5298C54.1422 159.039 70.4112 158.367 80.7816 164.424C94.4185 172.39 98.5148 183.648 97.9477 204.815C103.264 201.356 107.636 197.533 114.609 195.39C132.701 189.832 148.503 195.557 159.207 203.637C155.897 196.986 156.06 190.353 162.405 186.807C163.695 186.358 164.986 185.909 166.275 185.461C160.037 182.964 154.523 177.75 149.446 173.849C137.011 164.295 127.113 151.292 121.172 135.309C117.414 122.127 113.656 108.944 109.897 95.7598C107.653 85.6631 105.409 75.5654 103.165 65.4667C102.495 62.6303 101.039 56.4926 103.67 55.2007C104.658 54.6581 105.62 55.022 106.531 55.369C114.759 70.9403 123.875 83.7239 137.834 93.572C148.779 101.295 161.553 105.989 174.858 111.58C186.93 116.652 198.795 123.223 209.022 130.429C217.055 136.088 222.954 142.96 227.198 152.475C228.435 155.25 231.279 161.058 228.881 164.088C225.337 164.227 224.022 158.674 222.486 156.178C218.093 149.042 211.732 142.482 205.152 137.497C191.291 126.995 173.606 121.452 156.514 113.936C143.076 108.026 129.695 99.1617 121.004 88.3548C117.869 84.4565 113.594 80.6392 111.411 75.901H111.243C113.367 89.1972 117.413 100.712 121.509 112.084C130.164 136.119 137.076 153.989 155.673 168.295C159.991 171.604 164.311 174.913 168.632 178.224C172.474 180.954 176.733 183.245 179.739 186.807C180.954 188.248 185.298 193.534 183.273 196.064C182.489 197.117 180.994 196.994 179.907 196.232C178.418 195.187 177.252 193.583 175.532 192.698C171.254 190.496 165.064 191.223 163.919 195.895C163.128 199.123 165.261 202.003 166.444 203.973C170.501 210.737 176.78 214.993 181.927 220.635C183.214 222.045 188.649 227.659 186.639 230.227C185.222 233.255 175.755 230.206 172.671 229.218C175.279 242.796 185.626 249.522 190.51 261.194C200.91 286.046 191.508 312.332 179.739 328.512C174.177 336.159 168.396 339.912 157.019 341.975C153.532 342.608 149.064 343.369 146.248 341.639C146.018 340.698 145.823 340.151 146.417 339.451C147.751 337.669 154.953 337.881 157.861 337.263C162.282 336.324 165.804 334.269 168.8 331.878C178.884 323.83 190.471 299.075 186.302 279.201C183.704 266.811 178.546 257.799 174.185 247.73H103.165ZM382.198 56.2105C391.129 56.6681 395.417 68.5465 396.839 77.0791C397.661 81.9998 396.065 86.8321 395.157 90.8793C392.137 104.316 387.075 116.525 380.178 126.221C377.317 129.363 374.456 132.504 371.595 135.646C367.953 140.169 363.776 144.412 358.805 147.595C352.561 151.591 341.948 153.865 332.551 151.297C329.69 150.515 327.998 150.554 326.997 147.931C327.295 147.133 327.552 146.814 328.007 146.248C333.916 145.835 341.544 148.307 347.866 146.417C360.661 142.59 367.215 132.27 374.12 122.519C377.371 117.926 381.513 113.226 383.039 107.036C383.898 103.554 383.223 99.1777 382.198 96.433C379.45 91.4402 376.701 86.4475 373.951 81.4547C371.082 73.9049 373.386 61.7491 378.327 57.8935C379.482 56.9926 380.702 56.8603 382.198 56.2105ZM360.319 73.2083C366.647 73.3619 370.151 83.0546 368.902 90.5427C368.463 93.1723 367.933 97.2655 368.566 100.304C369.072 102.738 370.104 105.749 371.427 107.54C372.213 108.326 372.998 109.111 373.783 109.897C374.446 111.441 373.352 112.912 372.268 113.262C368.945 114.34 362.275 110.369 360.319 109.055C353.492 104.467 345.868 92.6597 351.063 81.1181C352.967 76.8884 356.154 75.2783 360.319 73.2083ZM334.234 205.488H312.355C311.038 184.687 286.657 169.697 263.213 178.898C247.962 184.882 242.262 198.088 239.147 216.427C238.447 220.549 237.902 226.301 238.642 230.901C241.722 250.036 245.963 264.794 261.194 271.46C285.928 282.286 311.946 267.348 312.355 243.018C314.414 243.072 320.213 243.792 321.443 242.681C321.556 241.111 321.668 239.54 321.78 237.969C322.34 235.052 322.901 232.135 323.463 229.218C326.91 217.705 333.424 208.867 342.817 203.3C364.687 190.338 392.119 199.896 402.898 216.091C404.652 218.726 406.885 221.801 407.61 225.347H407.779V199.598H424.945C438.633 222.371 452.321 245.147 466.009 267.926V199.598H481.155V290.645H464.157C450.414 267.984 436.67 245.321 422.925 222.654V290.645H407.779C407.723 282.007 407.667 273.368 407.61 264.728V265.065C405.143 269.075 403.785 273.272 401.047 276.845C392.883 287.495 374.808 296.436 355.102 291.487C350.974 290.45 346.829 289.068 343.49 287.111C338.111 283.978 333.463 279.732 329.858 274.657C328.68 272.582 327.502 270.507 326.324 268.43C326.268 268.543 326.211 268.654 326.156 268.767C324.641 270.899 323.126 273.031 321.612 275.162C316.925 281.11 309.745 286.049 302.258 289.131C297.978 290.891 293.165 291.877 288.121 292.833C280.563 294.267 270.107 293.444 263.718 291.823C236.121 284.824 223.125 266.609 217.605 237.464C215.613 226.946 217.055 213.284 219.457 204.647C226.961 177.661 241.454 163.189 271.123 158.197C280.139 156.681 290.859 158.298 298.05 160.553C306.162 163.098 311.938 167.465 317.909 171.997C317.812 157.277 305.464 151.596 301.585 139.348C300.871 137.095 299.762 134.303 300.406 131.102C302.285 121.786 312.564 113.705 323.968 118.311C331.731 121.448 336.342 128.173 341.975 133.458C341.514 112.73 330.824 80.8669 305.287 90.5427C301.677 91.9106 297.867 93.8061 294.853 95.9281C286.724 101.65 281.411 109.489 277.518 119.489C276.315 122.578 275.585 131.763 273.984 133.794C272.937 133.934 272.131 134.042 271.46 133.458C266.34 130.34 274.166 111.233 276.004 107.709C278.951 102.061 283.069 96.3125 287.953 92.5622C298.091 84.7787 320.018 77.3078 333.561 87.3451C343.36 94.6083 346.686 110.073 346.688 127.063C346.688 130.943 346.888 143.331 345.005 144.565C341.893 146.605 339.299 139.255 338.105 137.665C334.658 133.077 321.76 121.184 312.86 125.548C308.715 127.581 305.263 134.21 307.643 140.526C309.045 144.248 312.416 146.432 314.712 149.278C317.012 152.129 319.377 154.932 321.275 158.197C323.485 161.999 324.449 166.728 325.314 171.829C325.79 174.64 324.333 177.849 324.978 180.244C326.043 181.927 327.109 183.61 328.175 185.293C331.065 190.902 333.705 197.748 334.234 205.488ZM426.796 87.6817C436.534 87.4661 437.831 97.8285 434.706 105.353C429.675 117.465 412.484 124.925 396.839 118.648C394.068 117.536 390.34 116.228 388.761 113.936C385.658 109.429 393.554 110.268 396.335 109.56C397.794 108.999 399.252 108.438 400.71 107.877C406.693 104.802 409.386 98.8849 414.342 94.9183C416.957 92.8249 419.919 90.2608 423.093 88.8597L426.796 87.6817ZM383.039 123.865C386.043 124.439 387.676 128.202 390.613 129.419C398.645 132.748 408.777 129.641 413.164 136.992C413.969 138.341 414.011 140.602 413.164 142.041C405.89 154.413 388.102 145.701 383.544 136.992C382.598 135.186 379.057 126.252 382.198 124.37C382.479 124.202 382.758 124.033 383.039 123.865ZM21.71 177.551V218.447H46.9543C66.3419 218.448 75.5947 216.491 76.5742 197.915C76.7374 194.801 75.8657 191.412 75.0595 189.163C71.0003 177.837 60.4095 177.551 44.9347 177.551H21.71ZM103.165 233.425H155.168C155.505 200.177 103.062 201.126 103.165 233.425ZM363.012 210.705C360.308 211.762 357.25 211.58 354.766 212.556C346.312 215.88 341.013 222.875 338.273 231.91C330.954 256.052 344.569 284.052 371.09 279.201C388.235 276.066 394.438 264.587 395.661 245.374C396.054 239.206 394.712 232.535 392.8 227.871C388.12 216.451 379.418 210.603 363.012 210.705ZM166.612 212.893C168.152 215.895 169.465 218.942 170.819 222.318C173.009 222.27 175.186 222.67 177.215 223.496C174.953 219.588 170.178 215.569 166.612 212.893ZM197.41 298.555C198.209 298.853 198.527 299.111 199.093 299.565C198.588 303.323 198.083 307.082 197.578 310.841C195.914 321.164 197.255 334.03 199.093 342.985C199.583 345.368 201.326 354.971 200.608 355.944C200.234 356.497 199.933 356.529 199.261 356.785C195.276 355.217 194.231 349.251 193.034 344.836C190.128 334.121 188.894 303.419 197.41 298.555Z" fill="#EFECE4"/>
<path d="M359.228 325.177H350.602C350.602 316.443 355.239 310.728 365.32 310.728C373.354 310.728 378.745 314.934 378.745 322.05C378.745 331.863 367.747 336.607 362.948 341.352V341.459H378.745V348.846H350.063C350.063 342.646 353.298 338.818 356.586 336.068C363.272 330.515 369.58 327.604 369.58 322.697C369.58 319.84 367.962 318.115 365.051 318.115C361.546 318.115 359.228 320.056 359.228 325.177ZM399.229 349.708C388.069 349.708 382.839 340.813 382.839 330.245C382.839 319.678 388.069 310.728 399.229 310.728C410.389 310.728 415.565 319.678 415.565 330.245C415.565 340.813 410.389 349.708 399.229 349.708ZM399.229 342.322C404.674 342.322 406.4 337.632 406.4 330.245C406.4 322.859 404.674 318.115 399.229 318.115C393.784 318.115 392.005 322.859 392.005 330.245C392.005 337.632 393.784 342.322 399.229 342.322ZM427.724 325.177H419.098C419.098 316.443 423.735 310.728 433.817 310.728C441.85 310.728 447.241 314.934 447.241 322.05C447.241 331.863 436.243 336.607 431.444 341.352V341.459H447.241V348.846H418.559C418.559 342.646 421.794 338.818 425.083 336.068C431.768 330.515 438.076 327.604 438.076 322.697C438.076 319.84 436.458 318.115 433.547 318.115C430.043 318.115 427.724 320.056 427.724 325.177ZM460.238 323.021H451.611C451.611 315.904 456.895 310.728 466.438 310.728C473.393 310.728 479.754 314.395 479.754 320.972C479.754 325.016 477.382 327.55 474.363 329.113V329.221C478.946 330.677 480.833 333.804 480.833 338.386C480.833 345.719 474.848 349.708 466.599 349.708C456.086 349.708 450.533 344.64 450.533 335.691H459.159C459.159 340.004 461.154 342.322 465.952 342.322C469.834 342.322 471.667 340.651 471.667 337.847C471.667 334.235 469.133 332.887 464.82 332.887H462.933V326.579H464.605C468.594 326.579 470.589 325.285 470.589 322.482C470.589 319.301 468.756 318.115 465.737 318.115C462.879 318.115 460.238 319.463 460.238 323.021Z" fill="#EFECE4"/>
</svg>
