<svg width="1150" height="601" viewBox="0 0 1150 601" fill="none" xmlns="http://www.w3.org/2000/svg">
<mask id="path-1-inside-1_2_50" fill="white">
<path fill-rule="evenodd" clip-rule="evenodd" d="M630 601C977.939 601 1260 324.536 1260 -16.5C1260 -357.536 977.939 -634 630 -634C282.061 -634 0 -357.536 0 -16.5C0 215.554 130.593 417.712 323.674 523.218C324.275 520.571 324.905 517.935 325.566 515.311L327.505 515.799L329.445 516.287C328.701 519.243 327.995 522.214 327.328 525.199C417.154 573.52 520.303 601 630 601ZM993.796 486.705L995.686 486.049C994.57 482.839 993.409 479.65 992.203 476.483L990.334 477.195L988.465 477.906C989.657 481.037 990.804 484.189 991.907 487.362L993.796 486.705ZM986.594 467.79L988.442 467.024C987.14 463.884 985.793 460.767 984.403 457.674L982.579 458.494L980.754 459.313C982.129 462.371 983.46 465.452 984.747 468.556L986.594 467.79ZM978.297 449.327L980.096 448.454C978.613 445.396 977.087 442.363 975.518 439.355L973.744 440.28L971.971 441.205C973.522 444.178 975.031 447.177 976.497 450.2L978.297 449.327ZM968.933 431.375L970.678 430.398C969.02 427.434 967.321 424.497 965.58 421.586L963.863 422.613L962.147 423.64C963.868 426.517 965.548 429.421 967.187 432.351L968.933 431.375ZM958.54 414L960.225 412.924C958.399 410.062 956.531 407.229 954.624 404.425L952.971 405.549L951.317 406.674C953.202 409.446 955.048 412.247 956.854 415.076L958.54 414ZM947.155 397.26L948.776 396.087C946.786 393.336 944.757 390.616 942.69 387.926L941.104 389.144L939.518 390.363C941.562 393.022 943.568 395.712 945.535 398.432L947.155 397.26ZM934.82 381.207L936.37 379.943C934.224 377.312 932.041 374.713 929.821 372.146L928.308 373.455L926.795 374.763C928.99 377.301 931.149 379.87 933.27 382.472L934.82 381.207ZM921.576 365.895L923.05 364.543C920.756 362.041 918.426 359.573 916.061 357.138L914.627 358.532L913.192 359.926C915.53 362.332 917.834 364.773 920.101 367.247L921.576 365.895ZM907.468 351.373L908.862 349.939C906.427 347.574 903.959 345.244 901.457 342.95L900.105 344.424L898.754 345.899C901.227 348.167 903.668 350.47 906.074 352.808L907.468 351.373ZM892.545 337.692L893.854 336.179C891.287 333.959 888.688 331.776 886.057 329.63L884.793 331.18L883.529 332.73C886.13 334.851 888.699 337.01 891.237 339.205L892.545 337.692ZM876.856 324.896L878.075 323.31C875.385 321.243 872.664 319.214 869.913 317.224L868.74 318.845L867.568 320.465C870.288 322.432 872.978 324.438 875.637 326.482L876.856 324.896ZM860.451 313.03L861.575 311.376C858.771 309.469 855.938 307.602 853.076 305.775L852 307.46L850.924 309.146C853.753 310.952 856.554 312.798 859.326 314.683L860.451 313.03ZM843.387 302.137L844.414 300.42C841.504 298.68 838.566 296.98 835.602 295.322L834.626 297.067L833.649 298.813C836.58 300.452 839.483 302.132 842.36 303.853L843.387 302.137ZM825.72 292.256L826.645 290.482C823.638 288.913 820.604 287.387 817.546 285.904L816.673 287.703L815.8 289.503C818.823 290.969 821.822 292.478 824.795 294.029L825.72 292.256ZM807.507 283.421L808.326 281.597C805.233 280.207 802.116 278.86 798.976 277.558L798.21 279.406L797.444 281.253C800.548 282.54 803.629 283.871 806.687 285.246L807.507 283.421ZM788.805 275.666L789.517 273.797C786.35 272.591 783.161 271.43 779.951 270.314L779.295 272.204L778.638 274.093C781.811 275.196 784.963 276.343 788.094 277.535L788.805 275.666ZM769.678 269.018L770.279 267.111C767.051 266.094 763.802 265.122 760.533 264.197L759.989 266.121L759.444 268.046C762.674 268.96 765.886 269.921 769.077 270.926L769.678 269.018ZM750.201 263.505L750.689 261.566C747.407 260.74 744.106 259.96 740.787 259.227L740.356 261.18L739.925 263.133C743.205 263.857 746.468 264.628 749.713 265.445L750.201 263.505ZM730.44 259.143L730.814 257.178C727.485 256.545 724.14 255.959 720.779 255.42L720.463 257.395L720.147 259.37C723.469 259.902 726.776 260.482 730.066 261.108L730.44 259.143ZM710.455 255.942L710.713 253.958C707.35 253.52 703.973 253.129 700.58 252.786L700.379 254.776L700.179 256.766C703.532 257.105 706.872 257.491 710.196 257.925L710.455 255.942ZM690.313 253.906L690.457 251.912C687.078 251.669 683.687 251.474 680.282 251.328L680.196 253.326L680.11 255.324C683.476 255.469 686.83 255.661 690.17 255.901L690.313 253.906ZM670.083 253.036L670.112 251.037C668.411 251.012 666.707 251 665 251C663.293 251 661.589 251.012 659.888 251.037L659.917 253.036L659.945 255.036C661.627 255.012 663.312 255 665 255C666.688 255 668.373 255.012 670.055 255.036L670.083 253.036ZM649.804 253.326L649.718 251.328C646.314 251.474 642.922 251.669 639.543 251.912L639.687 253.906L639.83 255.901C643.17 255.661 646.524 255.469 649.89 255.324L649.804 253.326ZM629.621 254.776L629.42 252.786C626.028 253.129 622.65 253.52 619.287 253.958L619.545 255.942L619.804 257.925C623.129 257.491 626.468 257.105 629.822 256.766L629.621 254.776ZM609.537 257.395L609.221 255.42C605.86 255.959 602.515 256.545 599.186 257.178L599.56 259.143L599.934 261.108C603.224 260.482 606.531 259.902 609.854 259.37L609.537 257.395ZM589.644 261.18L589.213 259.227C585.895 259.96 582.593 260.74 579.311 261.566L579.799 263.505L580.287 265.445C583.532 264.628 586.795 263.857 590.076 263.133L589.644 261.18ZM570.012 266.121L569.467 264.197C566.198 265.122 562.95 266.094 559.721 267.111L560.322 269.018L560.923 270.926C564.114 269.921 567.326 268.96 570.556 268.046L570.012 266.121ZM550.705 272.204L550.049 270.314C546.839 271.43 543.65 272.591 540.483 273.797L541.195 275.666L541.907 277.535C545.037 276.343 548.189 275.196 551.362 274.093L550.705 272.204ZM531.79 279.406L531.024 277.558C527.884 278.86 524.767 280.207 521.674 281.597L522.494 283.421L523.313 285.246C526.371 283.871 529.452 282.54 532.556 281.253L531.79 279.406ZM513.327 287.703L512.454 285.904C509.396 287.387 506.363 288.913 503.355 290.482L504.28 292.256L505.205 294.029C508.178 292.478 511.177 290.969 514.2 289.503L513.327 287.703ZM495.375 297.067L494.398 295.322C491.434 296.98 488.497 298.679 485.586 300.42L486.613 302.137L487.64 303.853C490.517 302.132 493.421 300.452 496.351 298.813L495.375 297.067ZM478 307.46L476.924 305.775C474.062 307.601 471.229 309.469 468.425 311.376L469.549 313.029L470.674 314.683C473.446 312.798 476.247 310.952 479.076 309.146L478 307.46ZM461.26 318.845L460.087 317.224C457.336 319.214 454.616 321.243 451.926 323.31L453.144 324.896L454.363 326.482C457.022 324.438 459.712 322.432 462.432 320.465L461.26 318.845ZM445.207 331.18L443.943 329.63C441.312 331.776 438.713 333.959 436.146 336.179L437.455 337.692L438.763 339.205C441.301 337.01 443.87 334.851 446.472 332.73L445.207 331.18ZM429.895 344.424L428.543 342.95C426.041 345.244 423.573 347.574 421.138 349.939L422.532 351.373L423.926 352.808C426.332 350.47 428.773 348.166 431.247 345.899L429.895 344.424ZM415.373 358.532L413.939 357.138C411.574 359.573 409.244 362.041 406.95 364.543L408.424 365.895L409.899 367.246C412.167 364.773 414.47 362.332 416.808 359.926L415.373 358.532ZM401.692 373.455L400.179 372.146C397.959 374.713 395.776 377.312 393.63 379.943L395.18 381.207L396.73 382.471C398.851 379.87 401.01 377.301 403.205 374.763L401.692 373.455ZM388.896 389.144L387.31 387.926C385.243 390.615 383.214 393.336 381.224 396.087L382.845 397.26L384.465 398.432C386.432 395.712 388.438 393.022 390.482 390.363L388.896 389.144ZM377.03 405.549L375.376 404.425C373.469 407.229 371.602 410.062 369.775 412.924L371.46 414L373.146 415.076C374.952 412.247 376.798 409.446 378.683 406.674L377.03 405.549ZM366.137 422.613L364.42 421.586C362.68 424.496 360.98 427.434 359.322 430.398L361.067 431.374L362.813 432.351C364.452 429.421 366.132 426.517 367.853 423.64L366.137 422.613ZM356.256 440.28L354.482 439.355C352.913 442.363 351.387 445.396 349.904 448.454L351.703 449.327L353.503 450.2C354.969 447.177 356.478 444.178 358.029 441.205L356.256 440.28ZM347.421 458.493L345.597 457.674C344.207 460.767 342.86 463.884 341.558 467.024L343.406 467.79L345.253 468.556C346.54 465.452 347.871 462.371 349.246 459.313L347.421 458.493ZM339.666 477.195L337.797 476.483C336.591 479.65 335.43 482.839 334.314 486.049L336.204 486.705L338.093 487.362C339.196 484.189 340.343 481.037 341.535 477.906L339.666 477.195ZM333.018 496.322L331.111 495.721C330.094 498.949 329.122 502.198 328.197 505.467L330.121 506.011L332.046 506.556C332.96 503.326 333.921 500.114 334.926 496.923L333.018 496.322Z"/>
</mask>
<path fill-rule="evenodd" clip-rule="evenodd" d="M630 601C977.939 601 1260 324.536 1260 -16.5C1260 -357.536 977.939 -634 630 -634C282.061 -634 0 -357.536 0 -16.5C0 215.554 130.593 417.712 323.674 523.218C324.275 520.571 324.905 517.935 325.566 515.311L327.505 515.799L329.445 516.287C328.701 519.243 327.995 522.214 327.328 525.199C417.154 573.52 520.303 601 630 601ZM993.796 486.705L995.686 486.049C994.57 482.839 993.409 479.65 992.203 476.483L990.334 477.195L988.465 477.906C989.657 481.037 990.804 484.189 991.907 487.362L993.796 486.705ZM986.594 467.79L988.442 467.024C987.14 463.884 985.793 460.767 984.403 457.674L982.579 458.494L980.754 459.313C982.129 462.371 983.46 465.452 984.747 468.556L986.594 467.79ZM978.297 449.327L980.096 448.454C978.613 445.396 977.087 442.363 975.518 439.355L973.744 440.28L971.971 441.205C973.522 444.178 975.031 447.177 976.497 450.2L978.297 449.327ZM968.933 431.375L970.678 430.398C969.02 427.434 967.321 424.497 965.58 421.586L963.863 422.613L962.147 423.64C963.868 426.517 965.548 429.421 967.187 432.351L968.933 431.375ZM958.54 414L960.225 412.924C958.399 410.062 956.531 407.229 954.624 404.425L952.971 405.549L951.317 406.674C953.202 409.446 955.048 412.247 956.854 415.076L958.54 414ZM947.155 397.26L948.776 396.087C946.786 393.336 944.757 390.616 942.69 387.926L941.104 389.144L939.518 390.363C941.562 393.022 943.568 395.712 945.535 398.432L947.155 397.26ZM934.82 381.207L936.37 379.943C934.224 377.312 932.041 374.713 929.821 372.146L928.308 373.455L926.795 374.763C928.99 377.301 931.149 379.87 933.27 382.472L934.82 381.207ZM921.576 365.895L923.05 364.543C920.756 362.041 918.426 359.573 916.061 357.138L914.627 358.532L913.192 359.926C915.53 362.332 917.834 364.773 920.101 367.247L921.576 365.895ZM907.468 351.373L908.862 349.939C906.427 347.574 903.959 345.244 901.457 342.95L900.105 344.424L898.754 345.899C901.227 348.167 903.668 350.47 906.074 352.808L907.468 351.373ZM892.545 337.692L893.854 336.179C891.287 333.959 888.688 331.776 886.057 329.63L884.793 331.18L883.529 332.73C886.13 334.851 888.699 337.01 891.237 339.205L892.545 337.692ZM876.856 324.896L878.075 323.31C875.385 321.243 872.664 319.214 869.913 317.224L868.74 318.845L867.568 320.465C870.288 322.432 872.978 324.438 875.637 326.482L876.856 324.896ZM860.451 313.03L861.575 311.376C858.771 309.469 855.938 307.602 853.076 305.775L852 307.46L850.924 309.146C853.753 310.952 856.554 312.798 859.326 314.683L860.451 313.03ZM843.387 302.137L844.414 300.42C841.504 298.68 838.566 296.98 835.602 295.322L834.626 297.067L833.649 298.813C836.58 300.452 839.483 302.132 842.36 303.853L843.387 302.137ZM825.72 292.256L826.645 290.482C823.638 288.913 820.604 287.387 817.546 285.904L816.673 287.703L815.8 289.503C818.823 290.969 821.822 292.478 824.795 294.029L825.72 292.256ZM807.507 283.421L808.326 281.597C805.233 280.207 802.116 278.86 798.976 277.558L798.21 279.406L797.444 281.253C800.548 282.54 803.629 283.871 806.687 285.246L807.507 283.421ZM788.805 275.666L789.517 273.797C786.35 272.591 783.161 271.43 779.951 270.314L779.295 272.204L778.638 274.093C781.811 275.196 784.963 276.343 788.094 277.535L788.805 275.666ZM769.678 269.018L770.279 267.111C767.051 266.094 763.802 265.122 760.533 264.197L759.989 266.121L759.444 268.046C762.674 268.96 765.886 269.921 769.077 270.926L769.678 269.018ZM750.201 263.505L750.689 261.566C747.407 260.74 744.106 259.96 740.787 259.227L740.356 261.18L739.925 263.133C743.205 263.857 746.468 264.628 749.713 265.445L750.201 263.505ZM730.44 259.143L730.814 257.178C727.485 256.545 724.14 255.959 720.779 255.42L720.463 257.395L720.147 259.37C723.469 259.902 726.776 260.482 730.066 261.108L730.44 259.143ZM710.455 255.942L710.713 253.958C707.35 253.52 703.973 253.129 700.58 252.786L700.379 254.776L700.179 256.766C703.532 257.105 706.872 257.491 710.196 257.925L710.455 255.942ZM690.313 253.906L690.457 251.912C687.078 251.669 683.687 251.474 680.282 251.328L680.196 253.326L680.11 255.324C683.476 255.469 686.83 255.661 690.17 255.901L690.313 253.906ZM670.083 253.036L670.112 251.037C668.411 251.012 666.707 251 665 251C663.293 251 661.589 251.012 659.888 251.037L659.917 253.036L659.945 255.036C661.627 255.012 663.312 255 665 255C666.688 255 668.373 255.012 670.055 255.036L670.083 253.036ZM649.804 253.326L649.718 251.328C646.314 251.474 642.922 251.669 639.543 251.912L639.687 253.906L639.83 255.901C643.17 255.661 646.524 255.469 649.89 255.324L649.804 253.326ZM629.621 254.776L629.42 252.786C626.028 253.129 622.65 253.52 619.287 253.958L619.545 255.942L619.804 257.925C623.129 257.491 626.468 257.105 629.822 256.766L629.621 254.776ZM609.537 257.395L609.221 255.42C605.86 255.959 602.515 256.545 599.186 257.178L599.56 259.143L599.934 261.108C603.224 260.482 606.531 259.902 609.854 259.37L609.537 257.395ZM589.644 261.18L589.213 259.227C585.895 259.96 582.593 260.74 579.311 261.566L579.799 263.505L580.287 265.445C583.532 264.628 586.795 263.857 590.076 263.133L589.644 261.18ZM570.012 266.121L569.467 264.197C566.198 265.122 562.95 266.094 559.721 267.111L560.322 269.018L560.923 270.926C564.114 269.921 567.326 268.96 570.556 268.046L570.012 266.121ZM550.705 272.204L550.049 270.314C546.839 271.43 543.65 272.591 540.483 273.797L541.195 275.666L541.907 277.535C545.037 276.343 548.189 275.196 551.362 274.093L550.705 272.204ZM531.79 279.406L531.024 277.558C527.884 278.86 524.767 280.207 521.674 281.597L522.494 283.421L523.313 285.246C526.371 283.871 529.452 282.54 532.556 281.253L531.79 279.406ZM513.327 287.703L512.454 285.904C509.396 287.387 506.363 288.913 503.355 290.482L504.28 292.256L505.205 294.029C508.178 292.478 511.177 290.969 514.2 289.503L513.327 287.703ZM495.375 297.067L494.398 295.322C491.434 296.98 488.497 298.679 485.586 300.42L486.613 302.137L487.64 303.853C490.517 302.132 493.421 300.452 496.351 298.813L495.375 297.067ZM478 307.46L476.924 305.775C474.062 307.601 471.229 309.469 468.425 311.376L469.549 313.029L470.674 314.683C473.446 312.798 476.247 310.952 479.076 309.146L478 307.46ZM461.26 318.845L460.087 317.224C457.336 319.214 454.616 321.243 451.926 323.31L453.144 324.896L454.363 326.482C457.022 324.438 459.712 322.432 462.432 320.465L461.26 318.845ZM445.207 331.18L443.943 329.63C441.312 331.776 438.713 333.959 436.146 336.179L437.455 337.692L438.763 339.205C441.301 337.01 443.87 334.851 446.472 332.73L445.207 331.18ZM429.895 344.424L428.543 342.95C426.041 345.244 423.573 347.574 421.138 349.939L422.532 351.373L423.926 352.808C426.332 350.47 428.773 348.166 431.247 345.899L429.895 344.424ZM415.373 358.532L413.939 357.138C411.574 359.573 409.244 362.041 406.95 364.543L408.424 365.895L409.899 367.246C412.167 364.773 414.47 362.332 416.808 359.926L415.373 358.532ZM401.692 373.455L400.179 372.146C397.959 374.713 395.776 377.312 393.63 379.943L395.18 381.207L396.73 382.471C398.851 379.87 401.01 377.301 403.205 374.763L401.692 373.455ZM388.896 389.144L387.31 387.926C385.243 390.615 383.214 393.336 381.224 396.087L382.845 397.26L384.465 398.432C386.432 395.712 388.438 393.022 390.482 390.363L388.896 389.144ZM377.03 405.549L375.376 404.425C373.469 407.229 371.602 410.062 369.775 412.924L371.46 414L373.146 415.076C374.952 412.247 376.798 409.446 378.683 406.674L377.03 405.549ZM366.137 422.613L364.42 421.586C362.68 424.496 360.98 427.434 359.322 430.398L361.067 431.374L362.813 432.351C364.452 429.421 366.132 426.517 367.853 423.64L366.137 422.613ZM356.256 440.28L354.482 439.355C352.913 442.363 351.387 445.396 349.904 448.454L351.703 449.327L353.503 450.2C354.969 447.177 356.478 444.178 358.029 441.205L356.256 440.28ZM347.421 458.493L345.597 457.674C344.207 460.767 342.86 463.884 341.558 467.024L343.406 467.79L345.253 468.556C346.54 465.452 347.871 462.371 349.246 459.313L347.421 458.493ZM339.666 477.195L337.797 476.483C336.591 479.65 335.43 482.839 334.314 486.049L336.204 486.705L338.093 487.362C339.196 484.189 340.343 481.037 341.535 477.906L339.666 477.195ZM333.018 496.322L331.111 495.721C330.094 498.949 329.122 502.198 328.197 505.467L330.121 506.011L332.046 506.556C332.96 503.326 333.921 500.114 334.926 496.923L333.018 496.322Z" fill="#371E67" fill-opacity="0.4"/>
<path d="M323.674 523.218L323.194 524.095L324.356 524.73L324.649 523.439L323.674 523.218ZM325.566 515.311L325.81 514.341L324.84 514.097L324.596 515.067L325.566 515.311ZM327.505 515.799L327.261 516.769H327.261L327.505 515.799ZM329.445 516.287L330.414 516.531L330.659 515.561L329.689 515.317L329.445 516.287ZM327.328 525.199L326.352 524.981L326.187 525.721L326.854 526.08L327.328 525.199ZM995.686 486.049L996.014 486.993L996.958 486.665L996.63 485.72L995.686 486.049ZM993.796 486.705L994.125 487.65L993.796 486.705ZM992.203 476.483L993.138 476.127L992.782 475.193L991.847 475.549L992.203 476.483ZM988.465 477.906L988.109 476.972L987.174 477.328L987.53 478.262L988.465 477.906ZM991.907 487.362L990.963 487.69L991.291 488.635L992.236 488.306L991.907 487.362ZM988.442 467.024L988.825 467.948L989.749 467.565L989.366 466.641L988.442 467.024ZM984.403 457.674L985.315 457.264L984.905 456.352L983.993 456.762L984.403 457.674ZM982.579 458.494L982.169 457.581H982.169L982.579 458.494ZM980.754 459.313L980.344 458.401L979.432 458.811L979.842 459.723L980.754 459.313ZM984.747 468.556L983.823 468.939L984.206 469.863L985.13 469.48L984.747 468.556ZM980.096 448.454L980.533 449.354L981.433 448.918L980.996 448.018L980.096 448.454ZM975.518 439.355L976.404 438.892L975.942 438.006L975.055 438.468L975.518 439.355ZM973.744 440.28L974.207 441.166H974.207L973.744 440.28ZM971.971 441.205L971.509 440.318L970.622 440.781L971.084 441.667L971.971 441.205ZM976.497 450.2L975.598 450.636L976.034 451.536L976.934 451.1L976.497 450.2ZM970.678 430.398L971.166 431.271L972.039 430.783L971.551 429.91L970.678 430.398ZM968.933 431.375L968.444 430.502L968.933 431.375ZM965.58 421.586L966.438 421.073L965.925 420.215L965.066 420.728L965.58 421.586ZM963.863 422.613L963.35 421.755H963.35L963.863 422.613ZM962.147 423.64L961.634 422.782L960.776 423.295L961.289 424.153L962.147 423.64ZM967.187 432.351L966.314 432.839L966.803 433.712L967.675 433.224L967.187 432.351ZM960.225 412.924L960.763 413.767L961.606 413.229L961.068 412.386L960.225 412.924ZM954.624 404.425L955.451 403.862L954.889 403.036L954.062 403.598L954.624 404.425ZM951.317 406.674L950.754 405.847L949.927 406.409L950.49 407.236L951.317 406.674ZM956.854 415.076L956.011 415.614L956.549 416.457L957.392 415.919L956.854 415.076ZM948.776 396.087L949.362 396.898L950.172 396.312L949.586 395.501L948.776 396.087ZM947.155 397.26L947.741 398.07L947.741 398.07L947.155 397.26ZM942.69 387.926L943.483 387.316L942.873 386.523L942.081 387.133L942.69 387.926ZM941.104 389.144L940.495 388.351L941.104 389.144ZM939.518 390.363L938.909 389.57L938.116 390.179L938.725 390.972L939.518 390.363ZM945.535 398.432L944.725 399.018L945.311 399.828L946.121 399.242L945.535 398.432ZM936.37 379.943L937.002 380.718L937.777 380.086L937.145 379.311L936.37 379.943ZM934.82 381.207L934.188 380.432V380.433L934.82 381.207ZM929.821 372.146L930.577 371.492L929.923 370.736L929.167 371.39L929.821 372.146ZM928.308 373.455L927.654 372.698L928.308 373.455ZM926.795 374.763L926.141 374.007L925.385 374.661L926.039 375.417L926.795 374.763ZM933.27 382.472L932.495 383.104L933.127 383.879L933.902 383.246L933.27 382.472ZM923.05 364.543L923.726 365.281L924.463 364.605L923.787 363.868L923.05 364.543ZM921.576 365.895L920.9 365.158L921.576 365.895ZM916.061 357.138L916.778 356.442L916.082 355.724L915.364 356.421L916.061 357.138ZM913.192 359.926L912.495 359.208L911.778 359.905L912.475 360.622L913.192 359.926ZM920.101 367.247L919.364 367.922L920.04 368.659L920.777 367.984L920.101 367.247ZM908.862 349.939L909.579 350.636L910.276 349.919L909.559 349.222L908.862 349.939ZM901.457 342.95L902.132 342.213L901.395 341.537L900.72 342.274L901.457 342.95ZM900.105 344.424L899.368 343.749L900.105 344.424ZM898.754 345.899L898.016 345.223L897.341 345.96L898.078 346.636L898.754 345.899ZM906.074 352.808L905.378 353.525L906.095 354.222L906.792 353.505L906.074 352.808ZM893.854 336.179L894.61 336.833L895.264 336.077L894.508 335.423L893.854 336.179ZM892.545 337.692L891.789 337.038H891.789L892.545 337.692ZM886.057 329.63L886.689 328.855L885.914 328.223L885.282 328.998L886.057 329.63ZM884.793 331.18L885.568 331.812L884.793 331.18ZM883.529 332.73L882.754 332.098L882.122 332.873L882.897 333.505L883.529 332.73ZM891.237 339.205L890.583 339.961L891.339 340.615L891.993 339.859L891.237 339.205ZM878.075 323.31L878.867 323.92L879.477 323.127L878.684 322.517L878.075 323.31ZM876.856 324.896L876.063 324.287L876.856 324.896ZM869.913 317.224L870.499 316.414L869.688 315.828L869.102 316.638L869.913 317.224ZM867.568 320.465L866.758 319.879L866.172 320.689L866.982 321.275L867.568 320.465ZM875.637 326.482L875.028 327.275L875.821 327.884L876.43 327.091L875.637 326.482ZM861.575 311.376L862.402 311.938L862.965 311.111L862.138 310.549L861.575 311.376ZM860.451 313.03L859.624 312.467L860.451 313.03ZM853.076 305.775L853.614 304.932L852.771 304.394L852.233 305.237L853.076 305.775ZM850.924 309.146L850.081 308.608L849.543 309.451L850.386 309.989L850.924 309.146ZM859.326 314.683L858.764 315.51L859.591 316.073L860.153 315.246L859.326 314.683ZM844.414 300.42L845.272 300.934L845.785 300.075L844.927 299.562L844.414 300.42ZM843.387 302.137L842.529 301.623H842.529L843.387 302.137ZM835.602 295.322L836.09 294.449L835.217 293.961L834.729 294.834L835.602 295.322ZM834.626 297.067L833.753 296.579L834.626 297.067ZM833.649 298.813L832.777 298.325L832.288 299.198L833.161 299.686L833.649 298.813ZM842.36 303.853L841.847 304.711L842.705 305.225L843.219 304.366L842.36 303.853ZM826.645 290.482L827.532 290.945L827.995 290.058L827.108 289.596L826.645 290.482ZM825.72 292.256L824.834 291.793L824.834 291.793L825.72 292.256ZM817.546 285.904L817.982 285.004L817.082 284.567L816.646 285.467L817.546 285.904ZM815.8 289.503L814.9 289.066L814.464 289.966L815.364 290.402L815.8 289.503ZM824.795 294.029L824.333 294.916L825.22 295.378L825.682 294.491L824.795 294.029ZM808.326 281.597L809.239 282.007L809.648 281.095L808.736 280.685L808.326 281.597ZM807.507 283.421L806.594 283.011V283.011L807.507 283.421ZM798.976 277.558L799.359 276.635L798.435 276.251L798.052 277.175L798.976 277.558ZM798.21 279.406L797.286 279.023L798.21 279.406ZM797.444 281.253L796.52 280.87L796.137 281.794L797.061 282.177L797.444 281.253ZM806.687 285.246L806.277 286.158L807.189 286.568L807.599 285.656L806.687 285.246ZM789.517 273.797L790.452 274.153L790.807 273.218L789.873 272.862L789.517 273.797ZM788.805 275.666L787.871 275.31L788.805 275.666ZM779.951 270.314L780.28 269.37L779.335 269.042L779.007 269.986L779.951 270.314ZM778.638 274.093L777.694 273.764L777.365 274.709L778.31 275.037L778.638 274.093ZM788.094 277.535L787.738 278.47L788.672 278.826L789.028 277.891L788.094 277.535ZM770.279 267.111L771.233 267.411L771.533 266.458L770.58 266.157L770.279 267.111ZM769.678 269.018L770.632 269.319L769.678 269.018ZM760.533 264.197L760.806 263.235L759.844 262.963L759.571 263.925L760.533 264.197ZM759.444 268.046L758.482 267.773L758.209 268.736L759.171 269.008L759.444 268.046ZM769.077 270.926L768.777 271.88L769.731 272.18L770.031 271.227L769.077 270.926ZM750.689 261.566L751.659 261.81L751.903 260.84L750.933 260.596L750.689 261.566ZM750.201 263.505L749.231 263.261L749.231 263.261L750.201 263.505ZM740.787 259.227L741.002 258.251L740.026 258.035L739.81 259.012L740.787 259.227ZM740.356 261.18L741.332 261.396L740.356 261.18ZM739.925 263.133L738.948 262.918L738.732 263.894L739.709 264.11L739.925 263.133ZM749.713 265.445L749.469 266.414L750.439 266.659L750.683 265.689L749.713 265.445ZM730.814 257.178L731.796 257.365L731.983 256.383L731.001 256.196L730.814 257.178ZM730.44 259.143L729.457 258.956V258.956L730.44 259.143ZM720.779 255.42L720.937 254.433L719.95 254.275L719.792 255.262L720.779 255.42ZM720.463 257.395L721.45 257.553L720.463 257.395ZM720.147 259.37L719.159 259.212L719.001 260.199L719.988 260.358L720.147 259.37ZM730.066 261.108L729.879 262.09L730.862 262.277L731.048 261.295L730.066 261.108ZM710.713 253.958L711.705 254.088L711.834 253.096L710.843 252.967L710.713 253.958ZM700.58 252.786L700.681 251.791L699.686 251.691L699.585 252.686L700.58 252.786ZM700.379 254.776L699.384 254.676L700.379 254.776ZM700.179 256.766L699.184 256.666L699.083 257.66L700.078 257.761L700.179 256.766ZM710.196 257.925L710.067 258.916L711.058 259.046L711.188 258.054L710.196 257.925ZM690.457 251.912L691.454 251.983L691.526 250.986L690.528 250.914L690.457 251.912ZM680.282 251.328L680.325 250.329L679.326 250.286L679.283 251.285L680.282 251.328ZM680.196 253.326L679.197 253.283L680.196 253.326ZM680.11 255.324L679.111 255.281L679.068 256.28L680.068 256.323L680.11 255.324ZM690.17 255.901L690.098 256.899L691.096 256.971L691.167 255.973L690.17 255.901ZM670.112 251.037L671.112 251.051L671.126 250.051L670.126 250.037L670.112 251.037ZM670.083 253.036L671.083 253.051V253.051L670.083 253.036ZM659.888 251.037L659.874 250.037L658.874 250.051L658.888 251.051L659.888 251.037ZM659.917 253.036L658.917 253.051V253.051L659.917 253.036ZM659.945 255.036L658.946 255.05L658.96 256.05L659.96 256.036L659.945 255.036ZM670.055 255.036L670.04 256.036L671.04 256.05L671.054 255.05L670.055 255.036ZM649.718 251.328L650.717 251.285L650.674 250.286L649.675 250.329L649.718 251.328ZM639.543 251.912L639.472 250.914L638.474 250.986L638.546 251.983L639.543 251.912ZM639.687 253.906L638.689 253.978V253.978L639.687 253.906ZM639.83 255.901L638.833 255.973L638.904 256.97L639.902 256.899L639.83 255.901ZM649.89 255.324L649.933 256.323L650.932 256.28L650.889 255.281L649.89 255.324ZM629.42 252.786L630.415 252.686L630.314 251.691L629.319 251.791L629.42 252.786ZM619.287 253.958L619.157 252.967L618.166 253.096L618.295 254.088L619.287 253.958ZM619.545 255.942L618.554 256.071V256.071L619.545 255.942ZM619.804 257.925L618.813 258.054L618.942 259.046L619.933 258.916L619.804 257.925ZM629.822 256.766L629.922 257.761L630.917 257.66L630.817 256.666L629.822 256.766ZM609.221 255.42L610.208 255.262L610.05 254.275L609.063 254.433L609.221 255.42ZM609.537 257.395L610.525 257.237L609.537 257.395ZM599.186 257.178L599 256.196L598.017 256.383L598.204 257.365L599.186 257.178ZM599.56 259.143L600.543 258.956V258.956L599.56 259.143ZM599.934 261.108L598.952 261.295L599.139 262.277L600.121 262.09L599.934 261.108ZM609.854 259.37L610.012 260.358L610.999 260.199L610.841 259.212L609.854 259.37ZM589.213 259.227L590.19 259.012L589.974 258.035L588.998 258.251L589.213 259.227ZM579.311 261.566L579.067 260.596L578.097 260.84L578.341 261.81L579.311 261.566ZM579.799 263.505L580.769 263.261V263.261L579.799 263.505ZM580.287 265.445L579.317 265.689L579.561 266.659L580.531 266.414L580.287 265.445ZM590.076 263.133L590.291 264.11L591.268 263.894L591.052 262.918L590.076 263.133ZM569.467 264.197L570.429 263.925L570.157 262.962L569.194 263.235L569.467 264.197ZM559.721 267.111L559.42 266.157L558.467 266.458L558.767 267.411L559.721 267.111ZM560.322 269.018L559.368 269.319L560.322 269.018ZM560.923 270.926L559.969 271.227L560.269 272.18L561.223 271.88L560.923 270.926ZM570.556 268.046L570.829 269.008L571.791 268.736L571.519 267.773L570.556 268.046ZM550.049 270.314L550.993 269.986L550.665 269.042L549.72 269.37L550.049 270.314ZM550.705 272.204L551.65 271.875L550.705 272.204ZM540.483 273.797L540.127 272.862L539.193 273.218L539.549 274.153L540.483 273.797ZM541.195 275.666L542.129 275.31H542.129L541.195 275.666ZM541.907 277.535L540.972 277.891L541.328 278.826L542.262 278.47L541.907 277.535ZM551.362 274.093L551.69 275.037L552.635 274.709L552.306 273.764L551.362 274.093ZM531.024 277.558L531.948 277.175L531.565 276.251L530.641 276.634L531.024 277.558ZM521.674 281.597L521.264 280.685L520.352 281.095L520.762 282.007L521.674 281.597ZM522.494 283.421L523.406 283.011L522.494 283.421ZM523.313 285.246L522.401 285.656L522.811 286.568L523.723 286.158L523.313 285.246ZM532.556 281.253L532.94 282.177L533.863 281.794L533.48 280.87L532.556 281.253ZM512.454 285.904L513.354 285.467L512.918 284.567L512.018 285.004L512.454 285.904ZM513.327 287.703L514.227 287.267L513.327 287.703ZM503.355 290.482L502.892 289.596L502.006 290.058L502.468 290.945L503.355 290.482ZM505.205 294.029L504.318 294.491L504.781 295.378L505.667 294.916L505.205 294.029ZM514.2 289.503L514.636 290.402L515.536 289.966L515.1 289.066L514.2 289.503ZM494.398 295.322L495.271 294.834L494.783 293.961L493.91 294.449L494.398 295.322ZM495.375 297.067L494.502 297.555V297.556L495.375 297.067ZM485.586 300.42L485.073 299.562L484.215 300.075L484.728 300.934L485.586 300.42ZM486.613 302.137L485.755 302.65L486.613 302.137ZM487.64 303.853L486.782 304.366L487.295 305.224L488.153 304.711L487.64 303.853ZM496.351 298.813L496.839 299.686L497.712 299.197L497.224 298.325L496.351 298.813ZM476.924 305.775L477.767 305.237L477.229 304.394L476.386 304.932L476.924 305.775ZM478 307.46L478.843 306.922L478 307.46ZM468.425 311.376L467.862 310.549L467.036 311.111L467.598 311.938L468.425 311.376ZM469.549 313.029L468.723 313.592L469.549 313.029ZM470.674 314.683L469.847 315.246L470.41 316.073L471.236 315.51L470.674 314.683ZM479.076 309.146L479.614 309.989L480.457 309.451L479.919 308.608L479.076 309.146ZM460.087 317.224L460.898 316.638L460.312 315.828L459.501 316.414L460.087 317.224ZM461.26 318.845L462.07 318.259L461.26 318.845ZM451.926 323.31L451.316 322.517L450.523 323.127L451.133 323.919L451.926 323.31ZM453.144 324.896L453.937 324.287H453.937L453.144 324.896ZM454.363 326.482L453.57 327.091L454.179 327.884L454.972 327.275L454.363 326.482ZM462.432 320.465L463.018 321.275L463.828 320.689L463.242 319.879L462.432 320.465ZM443.943 329.63L444.718 328.998L444.086 328.223L443.311 328.855L443.943 329.63ZM445.207 331.18L444.432 331.812H444.433L445.207 331.18ZM436.146 336.179L435.492 335.423L434.736 336.077L435.39 336.833L436.146 336.179ZM437.455 337.692L438.211 337.038H438.211L437.455 337.692ZM438.763 339.205L438.007 339.859L438.661 340.615L439.417 339.961L438.763 339.205ZM446.472 332.73L447.104 333.505L447.879 332.873L447.246 332.098L446.472 332.73ZM428.543 342.95L429.28 342.274L428.605 341.537L427.868 342.213L428.543 342.95ZM429.895 344.424L430.632 343.749H430.632L429.895 344.424ZM421.138 349.939L420.442 349.222L419.724 349.918L420.421 350.636L421.138 349.939ZM423.926 352.808L423.208 353.505L423.905 354.222L424.622 353.525L423.926 352.808ZM431.247 345.899L431.922 346.636L432.659 345.96L431.984 345.223L431.247 345.899ZM413.939 357.138L414.636 356.421L413.919 355.724L413.222 356.441L413.939 357.138ZM406.95 364.543L406.213 363.868L405.537 364.605L406.274 365.28L406.95 364.543ZM408.424 365.895L409.1 365.158L408.424 365.895ZM409.899 367.246L409.223 367.984L409.96 368.659L410.636 367.922L409.899 367.246ZM416.808 359.926L417.525 360.622L418.222 359.905L417.505 359.208L416.808 359.926ZM400.179 372.146L400.834 371.39L400.077 370.736L399.423 371.492L400.179 372.146ZM401.692 373.455L401.038 374.211L401.038 374.211L401.692 373.455ZM393.63 379.943L392.855 379.311L392.223 380.086L392.998 380.718L393.63 379.943ZM396.73 382.471L396.098 383.246L396.873 383.878L397.505 383.103L396.73 382.471ZM403.205 374.763L403.961 375.417L404.615 374.661L403.859 374.007L403.205 374.763ZM387.31 387.926L387.92 387.133L387.127 386.523L386.517 387.316L387.31 387.926ZM381.224 396.087L380.414 395.501L379.828 396.312L380.638 396.898L381.224 396.087ZM382.845 397.26L383.431 396.449L383.431 396.449L382.845 397.26ZM384.465 398.432L383.879 399.242L384.689 399.828L385.275 399.018L384.465 398.432ZM390.482 390.363L391.275 390.972L391.884 390.179L391.091 389.57L390.482 390.363ZM375.376 404.425L375.938 403.598L375.111 403.035L374.549 403.862L375.376 404.425ZM377.03 405.549L377.592 404.722H377.592L377.03 405.549ZM369.775 412.924L368.932 412.386L368.394 413.229L369.237 413.767L369.775 412.924ZM373.146 415.076L372.608 415.919L373.451 416.457L373.989 415.614L373.146 415.076ZM378.683 406.674L379.51 407.236L380.073 406.41L379.246 405.847L378.683 406.674ZM364.42 421.586L364.934 420.728L364.075 420.215L363.562 421.073L364.42 421.586ZM366.137 422.613L366.65 421.755H366.65L366.137 422.613ZM359.322 430.398L358.449 429.91L357.961 430.783L358.834 431.271L359.322 430.398ZM361.067 431.374L361.556 430.502H361.556L361.067 431.374ZM362.813 432.351L362.325 433.224L363.198 433.712L363.686 432.839L362.813 432.351ZM367.853 423.64L368.711 424.153L369.225 423.295L368.366 422.781L367.853 423.64ZM354.482 439.355L354.945 438.468L354.058 438.005L353.596 438.892L354.482 439.355ZM356.256 440.28L355.793 441.166H355.793L356.256 440.28ZM349.904 448.454L349.004 448.018L348.567 448.918L349.467 449.354L349.904 448.454ZM353.503 450.2L353.066 451.1L353.966 451.536L354.402 450.636L353.503 450.2ZM358.029 441.205L358.916 441.667L359.378 440.78L358.491 440.318L358.029 441.205ZM345.597 457.674L346.007 456.761L345.095 456.352L344.685 457.264L345.597 457.674ZM347.421 458.493L347.831 457.581H347.831L347.421 458.493ZM341.558 467.024L340.634 466.641L340.251 467.565L341.175 467.948L341.558 467.024ZM343.406 467.79L343.789 466.867L343.406 467.79ZM345.253 468.556L344.87 469.48L345.794 469.863L346.177 468.939L345.253 468.556ZM349.246 459.313L350.158 459.723L350.568 458.811L349.656 458.401L349.246 459.313ZM337.797 476.483L338.153 475.548L337.218 475.193L336.863 476.127L337.797 476.483ZM339.666 477.195L339.31 478.129H339.31L339.666 477.195ZM334.314 486.049L333.37 485.72L333.042 486.665L333.986 486.993L334.314 486.049ZM338.093 487.362L337.764 488.306L338.709 488.635L339.037 487.69L338.093 487.362ZM341.535 477.906L342.47 478.262L342.826 477.328L341.891 476.972L341.535 477.906ZM331.111 495.721L331.411 494.767L330.458 494.467L330.157 495.42L331.111 495.721ZM333.018 496.322L333.319 495.368L333.319 495.368L333.018 496.322ZM328.197 505.467L327.235 505.194L326.963 506.156L327.925 506.429L328.197 505.467ZM332.046 506.556L331.773 507.518L332.736 507.791L333.008 506.829L332.046 506.556ZM334.926 496.923L335.88 497.223L336.18 496.269L335.227 495.969L334.926 496.923ZM1259 -16.5C1259 323.965 977.406 600 630 600V602C978.473 602 1261 325.107 1261 -16.5H1259ZM630 -633C977.406 -633 1259 -356.965 1259 -16.5H1261C1261 -358.107 978.473 -635 630 -635V-633ZM1 -16.5C1 -356.965 282.594 -633 630 -633V-635C281.527 -635 -1 -358.107 -1 -16.5H1ZM324.153 522.34C131.374 416.999 1 215.167 1 -16.5H-1C-1 215.941 129.812 418.425 323.194 524.095L324.153 522.34ZM324.649 523.439C325.248 520.799 325.877 518.171 326.535 515.555L324.596 515.067C323.934 517.698 323.301 520.342 322.699 522.997L324.649 523.439ZM325.322 516.28L327.261 516.769L327.749 514.829L325.81 514.341L325.322 516.28ZM327.261 516.769L329.201 517.257L329.689 515.317L327.749 514.829L327.261 516.769ZM328.475 516.043C327.729 519.007 327.021 521.987 326.352 524.981L328.304 525.417C328.969 522.44 329.673 519.478 330.414 516.531L328.475 516.043ZM630 600C520.471 600 417.485 572.562 327.802 524.318L326.854 526.08C416.823 574.477 520.134 602 630 602V600ZM995.357 485.104L993.468 485.761L994.125 487.65L996.014 486.993L995.357 485.104ZM991.268 476.839C992.471 479.997 993.628 483.176 994.741 486.377L996.63 485.72C995.511 482.501 994.347 479.303 993.138 476.127L991.268 476.839ZM990.69 478.129L992.559 477.418L991.847 475.549L989.978 476.26L990.69 478.129ZM988.821 478.841L990.69 478.129L989.978 476.26L988.109 476.972L988.821 478.841ZM992.852 487.033C991.746 483.851 990.595 480.69 989.399 477.551L987.53 478.262C988.719 481.384 989.863 484.526 990.963 487.69L992.852 487.033ZM993.468 485.761L991.579 486.417L992.236 488.306L994.125 487.65L993.468 485.761ZM988.059 466.1L986.211 466.867L986.977 468.714L988.825 467.948L988.059 466.1ZM983.491 458.084C984.877 461.168 986.22 464.276 987.518 467.407L989.366 466.641C988.06 463.492 986.709 460.366 985.315 457.264L983.491 458.084ZM982.989 459.406L984.813 458.586L983.993 456.762L982.169 457.581L982.989 459.406ZM981.164 460.226L982.989 459.406L982.169 457.581L980.344 458.401L981.164 460.226ZM985.671 468.173C984.38 465.06 983.045 461.97 981.667 458.904L979.842 459.723C981.212 462.772 982.54 465.844 983.823 468.939L985.671 468.173ZM986.211 466.867L984.364 467.633L985.13 469.48L986.977 468.714L986.211 466.867ZM979.66 447.555L977.861 448.427L978.733 450.227L980.533 449.354L979.66 447.555ZM974.631 439.817C976.195 442.816 977.718 445.841 979.197 448.891L980.996 448.018C979.509 444.951 977.978 441.909 976.404 438.892L974.631 439.817ZM974.207 441.166L975.98 440.241L975.055 438.468L973.282 439.393L974.207 441.166ZM972.434 442.091L974.207 441.166L973.282 439.393L971.509 440.318L972.434 442.091ZM977.397 449.764C975.927 446.732 974.413 443.724 972.858 440.742L971.084 441.667C972.631 444.632 974.136 447.622 975.598 450.636L977.397 449.764ZM977.861 448.427L976.061 449.3L976.934 451.1L978.733 450.227L977.861 448.427ZM970.19 429.525L968.444 430.502L969.421 432.247L971.166 431.271L970.19 429.525ZM964.722 422.1C966.457 425.002 968.152 427.931 969.805 430.886L971.551 429.91C969.888 426.938 968.184 423.992 966.438 421.073L964.722 422.1ZM964.377 423.471L966.093 422.445L965.066 420.728L963.35 421.755L964.377 423.471ZM962.66 424.498L964.377 423.471L963.35 421.755L961.634 422.782L962.66 424.498ZM968.06 431.863C966.416 428.924 964.731 426.012 963.005 423.126L961.289 424.153C963.005 427.022 964.68 429.917 966.314 432.839L968.06 431.863ZM968.444 430.502L966.699 431.478L967.675 433.224L969.421 432.247L968.444 430.502ZM959.687 412.081L958.002 413.157L959.078 414.843L960.763 413.767L959.687 412.081ZM953.797 404.987C955.699 407.783 957.561 410.608 959.383 413.462L961.068 412.386C959.236 409.516 957.364 406.675 955.451 403.862L953.797 404.987ZM953.533 406.376L955.187 405.252L954.062 403.598L952.408 404.723L953.533 406.376ZM951.879 407.501L953.533 406.376L952.408 404.723L950.754 405.847L951.879 407.501ZM957.697 414.538C955.885 411.701 954.034 408.892 952.144 406.112L950.49 407.236C952.37 410.001 954.21 412.793 956.011 415.614L957.697 414.538ZM958.002 413.157L956.316 414.233L957.392 415.919L959.078 414.843L958.002 413.157ZM948.19 395.277L946.569 396.449L947.741 398.07L949.362 396.898L948.19 395.277ZM941.897 388.535C943.958 391.217 945.981 393.93 947.966 396.673L949.586 395.501C947.59 392.743 945.556 390.014 943.483 387.316L941.897 388.535ZM941.713 389.937L943.299 388.718L942.081 387.133L940.495 388.351L941.713 389.937ZM940.127 391.156L941.713 389.937L940.495 388.351L938.909 389.57L940.127 391.156ZM946.345 397.846C944.372 395.118 942.361 392.421 940.311 389.754L938.725 390.972C940.763 393.624 942.763 396.306 944.725 399.018L946.345 397.846ZM946.569 396.449L944.949 397.621L946.121 399.242L947.741 398.07L946.569 396.449ZM935.738 379.168L934.188 380.432L935.452 381.982L937.002 380.718L935.738 379.168ZM929.064 372.801C931.278 375.36 933.455 377.952 935.595 380.575L937.145 379.311C934.993 376.673 932.803 374.066 930.577 371.492L929.064 372.801ZM928.962 374.211L930.475 372.903L929.167 371.39L927.654 372.698L928.962 374.211ZM927.45 375.52L928.962 374.211L927.654 372.698L926.141 374.007L927.45 375.52ZM934.045 381.84C931.918 379.231 929.753 376.654 927.552 374.109L926.039 375.417C928.228 377.948 930.38 380.51 932.495 383.104L934.045 381.84ZM934.188 380.433L932.638 381.697L933.902 383.246L935.452 381.982L934.188 380.433ZM922.374 363.806L920.9 365.158L922.251 366.632L923.726 365.281L922.374 363.806ZM915.344 357.835C917.702 360.263 920.025 362.724 922.313 365.219L923.787 363.868C921.487 361.358 919.15 358.883 916.778 356.442L915.344 357.835ZM915.323 359.249L916.758 357.856L915.364 356.421L913.93 357.815L915.323 359.249ZM913.889 360.643L915.323 359.249L913.93 357.815L912.495 359.208L913.889 360.643ZM920.839 366.571C918.564 364.09 916.254 361.642 913.909 359.229L912.475 360.622C914.806 363.022 917.103 365.456 919.364 367.922L920.839 366.571ZM920.9 365.158L919.426 366.509L920.777 367.984L922.251 366.632L920.9 365.158ZM908.144 349.242L906.751 350.677L908.185 352.07L909.579 350.636L908.144 349.242ZM900.781 343.687C903.276 345.975 905.737 348.298 908.165 350.656L909.559 349.222C907.117 346.85 904.642 344.514 902.132 342.213L900.781 343.687ZM900.842 345.1L902.194 343.626L900.72 342.274L899.368 343.749L900.842 345.1ZM899.491 346.574L900.842 345.1L899.368 343.749L898.016 345.223L899.491 346.574ZM906.771 352.091C904.358 349.746 901.91 347.436 899.429 345.161L898.078 346.636C900.544 348.897 902.978 351.194 905.378 353.525L906.771 352.091ZM906.751 350.677L905.357 352.111L906.792 353.505L908.185 352.07L906.751 350.677ZM893.097 335.525L891.789 337.038L893.302 338.346L894.61 336.833L893.097 335.525ZM885.425 330.405C888.048 332.545 890.64 334.722 893.199 336.936L894.508 335.423C891.934 333.197 889.327 331.007 886.689 328.855L885.425 330.405ZM885.568 331.812L886.832 330.262L885.282 328.998L884.018 330.548L885.568 331.812ZM884.304 333.362L885.568 331.812L884.018 330.548L882.754 332.098L884.304 333.362ZM891.891 338.448C889.346 336.247 886.769 334.082 884.161 331.955L882.897 333.505C885.49 335.62 888.052 337.772 890.583 339.961L891.891 338.448ZM891.789 337.038L890.481 338.55L891.993 339.859L893.302 338.346L891.789 337.038ZM877.282 322.701L876.063 324.287L877.649 325.505L878.867 323.92L877.282 322.701ZM869.327 318.034C872.07 320.019 874.783 322.042 877.465 324.103L878.684 322.517C875.986 320.444 873.258 318.41 870.499 316.414L869.327 318.034ZM869.551 319.431L870.723 317.81L869.102 316.638L867.93 318.259L869.551 319.431ZM868.379 321.051L869.551 319.431L867.93 318.259L866.758 319.879L868.379 321.051ZM876.247 325.689C873.579 323.639 870.882 321.628 868.154 319.655L866.982 321.275C869.694 323.237 872.376 325.237 875.028 327.275L876.247 325.689ZM876.063 324.287L874.844 325.873L876.43 327.091L877.649 325.505L876.063 324.287ZM860.748 310.813L859.624 312.467L861.278 313.592L862.402 311.938L860.748 310.813ZM852.538 306.618C855.392 308.439 858.217 310.301 861.013 312.203L862.138 310.549C859.326 308.636 856.484 306.764 853.614 304.932L852.538 306.618ZM852.843 307.999L853.919 306.313L852.233 305.237L851.157 306.922L852.843 307.999ZM851.767 309.684L852.843 307.999L851.157 306.922L850.081 308.608L851.767 309.684ZM859.888 313.856C857.108 311.966 854.299 310.115 851.462 308.303L850.386 309.989C853.207 311.79 856 313.63 858.764 315.51L859.888 313.856ZM859.624 312.467L858.499 314.121L860.153 315.246L861.278 313.592L859.624 312.467ZM843.556 299.907L842.529 301.623L844.245 302.65L845.272 300.934L843.556 299.907ZM835.114 296.195C838.069 297.848 840.999 299.543 843.9 301.278L844.927 299.562C842.009 297.816 839.063 296.112 836.09 294.449L835.114 296.195ZM835.498 297.556L836.475 295.81L834.729 294.834L833.753 296.579L835.498 297.556ZM834.522 299.301L835.498 297.556L833.753 296.579L832.777 298.325L834.522 299.301ZM842.874 302.995C839.988 301.269 837.076 299.584 834.137 297.94L833.161 299.686C836.083 301.32 838.978 302.995 841.847 304.711L842.874 302.995ZM842.529 301.623L841.502 303.34L843.219 304.366L844.245 302.65L842.529 301.623ZM825.759 290.02L824.834 291.793L826.607 292.718L827.532 290.945L825.759 290.02ZM817.109 286.803C820.159 288.282 823.184 289.805 826.183 291.369L827.108 289.596C824.091 288.022 821.049 286.491 817.982 285.004L817.109 286.803ZM817.573 288.139L818.445 286.34L816.646 285.467L815.773 287.267L817.573 288.139ZM816.7 289.939L817.573 288.139L815.773 287.267L814.9 289.066L816.7 289.939ZM825.258 293.142C822.276 291.587 819.269 290.073 816.237 288.603L815.364 290.402C818.378 291.864 821.368 293.369 824.333 294.916L825.258 293.142ZM824.834 291.793L823.909 293.566L825.682 294.491L826.607 292.718L824.834 291.793ZM807.414 281.187L806.594 283.011L808.419 283.831L809.239 282.007L807.414 281.187ZM798.593 278.482C801.724 279.78 804.832 281.123 807.917 282.509L808.736 280.685C805.634 279.291 802.508 277.94 799.359 276.635L798.593 278.482ZM799.133 279.789L799.9 277.941L798.052 277.175L797.286 279.023L799.133 279.789ZM798.367 281.636L799.133 279.789L797.286 279.023L796.52 280.87L798.367 281.636ZM807.097 284.334C804.03 282.955 800.94 281.62 797.827 280.329L797.061 282.177C800.156 283.46 803.228 284.788 806.277 286.158L807.097 284.334ZM806.594 283.011L805.775 284.836L807.599 285.656L808.419 283.831L806.594 283.011ZM788.582 273.441L787.871 275.31L789.74 276.022L790.452 274.153L788.582 273.441ZM779.623 271.259C782.824 272.372 786.003 273.529 789.161 274.732L789.873 272.862C786.697 271.653 783.499 270.489 780.28 269.37L779.623 271.259ZM780.239 272.532L780.896 270.643L779.007 269.986L778.35 271.875L780.239 272.532ZM779.583 274.421L780.239 272.532L778.35 271.875L777.694 273.764L779.583 274.421ZM788.449 276.601C785.31 275.405 782.149 274.254 778.966 273.148L778.31 275.037C781.474 276.137 784.617 277.281 787.738 278.47L788.449 276.601ZM787.871 275.31L787.159 277.179L789.028 277.891L789.74 276.022L787.871 275.31ZM769.325 266.81L768.725 268.718L770.632 269.319L771.233 267.411L769.325 266.81ZM760.261 265.159C763.52 266.082 766.759 267.051 769.979 268.065L770.58 266.157C767.342 265.137 764.083 264.163 760.806 263.235L760.261 265.159ZM760.951 266.394L761.495 264.469L759.571 263.925L759.026 265.849L760.951 266.394ZM760.406 268.318L760.951 266.394L759.026 265.849L758.482 267.773L760.406 268.318ZM769.378 269.972C766.177 268.964 762.956 268.001 759.716 267.084L759.171 269.008C762.393 269.92 765.595 270.878 768.777 271.88L769.378 269.972ZM768.725 268.718L768.124 270.626L770.031 271.227L770.632 269.319L768.725 268.718ZM749.72 261.322L749.231 263.261L751.171 263.749L751.659 261.81L749.72 261.322ZM740.571 260.204C743.88 260.934 747.172 261.712 750.445 262.535L750.933 260.596C747.641 259.767 744.331 258.985 741.002 258.251L740.571 260.204ZM741.332 261.396L741.763 259.443L739.81 259.012L739.379 260.965L741.332 261.396ZM740.901 263.349L741.332 261.396L739.379 260.965L738.948 262.918L740.901 263.349ZM749.957 264.475C746.703 263.656 743.43 262.883 740.14 262.157L739.709 264.11C742.98 264.832 746.234 265.6 749.469 266.414L749.957 264.475ZM749.231 263.261L748.743 265.201L750.683 265.689L751.171 263.749L749.231 263.261ZM729.831 256.991L729.457 258.956L731.422 259.33L731.796 257.365L729.831 256.991ZM720.621 256.408C723.972 256.945 727.308 257.529 730.627 258.161L731.001 256.196C727.663 255.561 724.308 254.973 720.937 254.433L720.621 256.408ZM721.45 257.553L721.767 255.579L719.792 255.262L719.475 257.237L721.45 257.553ZM721.134 259.528L721.45 257.553L719.475 257.237L719.159 259.212L721.134 259.528ZM730.253 260.125C726.953 259.497 723.637 258.916 720.305 258.383L719.988 260.358C723.301 260.888 726.599 261.466 729.879 262.09L730.253 260.125ZM729.457 258.956L729.084 260.921L731.048 261.295L731.422 259.33L729.457 258.956ZM709.722 253.829L709.463 255.812L711.446 256.071L711.705 254.088L709.722 253.829ZM700.48 253.781C703.862 254.123 707.231 254.513 710.584 254.95L710.843 252.967C707.47 252.527 704.083 252.135 700.681 251.791L700.48 253.781ZM701.374 254.877L701.575 252.887L699.585 252.686L699.384 254.676L701.374 254.877ZM701.173 256.866L701.374 254.877L699.384 254.676L699.184 256.666L701.173 256.866ZM710.325 256.933C706.991 256.498 703.642 256.111 700.279 255.771L700.078 257.761C703.422 258.099 706.752 258.484 710.067 258.916L710.325 256.933ZM709.463 255.812L709.204 257.795L711.188 258.054L711.446 256.071L709.463 255.812ZM689.459 251.84L689.316 253.835L691.311 253.978L691.454 251.983L689.459 251.84ZM680.239 252.327C683.634 252.473 687.016 252.667 690.385 252.909L690.528 250.914C687.14 250.671 683.739 250.475 680.325 250.329L680.239 252.327ZM681.195 253.369L681.281 251.371L679.283 251.285L679.197 253.283L681.195 253.369ZM681.11 255.367L681.195 253.369L679.197 253.283L679.111 255.281L681.11 255.367ZM690.242 254.904C686.892 254.663 683.529 254.47 680.153 254.325L680.068 256.323C683.424 256.467 686.768 256.659 690.098 256.899L690.242 254.904ZM689.316 253.835L689.172 255.83L691.167 255.973L691.311 253.978L689.316 253.835ZM669.112 251.022L669.083 253.022L671.083 253.051L671.112 251.051L669.112 251.022ZM665 252C666.702 252 668.401 252.012 670.098 252.036L670.126 250.037C668.42 250.012 666.712 250 665 250V252ZM659.903 252.036C661.599 252.012 663.298 252 665 252V250C663.288 250 661.58 250.012 659.874 250.037L659.903 252.036ZM660.917 253.022L660.888 251.022L658.888 251.051L658.917 253.051L660.917 253.022ZM660.945 255.022L660.917 253.022L658.917 253.051L658.946 255.05L660.945 255.022ZM665 254C663.307 254 661.618 254.012 659.931 254.036L659.96 256.036C661.637 256.012 663.317 256 665 256V254ZM670.069 254.036C668.382 254.012 666.693 254 665 254V256C666.683 256 668.363 256.012 670.04 256.036L670.069 254.036ZM669.083 253.022L669.055 255.022L671.054 255.05L671.083 253.051L669.083 253.022ZM648.719 251.371L648.805 253.369L650.803 253.283L650.717 251.285L648.719 251.371ZM639.615 252.909C642.984 252.667 646.366 252.473 649.761 252.327L649.675 250.329C646.261 250.475 642.86 250.671 639.472 250.914L639.615 252.909ZM640.684 253.835L640.541 251.84L638.546 251.983L638.689 253.978L640.684 253.835ZM640.828 255.83L640.684 253.835L638.689 253.978L638.833 255.973L640.828 255.83ZM649.847 254.325C646.471 254.47 643.108 254.663 639.759 254.904L639.902 256.899C643.232 256.659 646.576 256.467 649.933 256.323L649.847 254.325ZM648.805 253.369L648.891 255.367L650.889 255.281L650.803 253.283L648.805 253.369ZM628.425 252.887L628.626 254.877L630.616 254.676L630.415 252.686L628.425 252.887ZM619.416 254.95C622.769 254.513 626.138 254.123 629.52 253.781L629.319 251.791C625.917 252.135 622.53 252.527 619.157 252.967L619.416 254.95ZM620.537 255.812L620.278 253.829L618.295 254.088L618.554 256.071L620.537 255.812ZM620.796 257.795L620.537 255.812L618.554 256.071L618.813 258.054L620.796 257.795ZM629.721 255.771C626.358 256.111 623.009 256.498 619.675 256.933L619.933 258.916C623.248 258.484 626.578 258.099 629.922 257.761L629.721 255.771ZM628.626 254.877L628.827 256.866L630.817 256.666L630.616 254.676L628.626 254.877ZM608.234 255.579L608.55 257.553L610.525 257.237L610.208 255.262L608.234 255.579ZM599.373 258.161C602.692 257.529 606.028 256.945 609.379 256.408L609.063 254.433C605.692 254.973 602.337 255.561 599 256.196L599.373 258.161ZM600.543 258.956L600.169 256.991L598.204 257.365L598.578 259.33L600.543 258.956ZM600.916 260.921L600.543 258.956L598.578 259.33L598.952 261.295L600.916 260.921ZM609.695 258.383C606.363 258.916 603.047 259.497 599.747 260.125L600.121 262.09C603.402 261.466 606.699 260.888 610.012 260.358L609.695 258.383ZM608.55 257.553L608.866 259.528L610.841 259.212L610.525 257.237L608.55 257.553ZM588.237 259.443L588.668 261.396L590.621 260.965L590.19 259.012L588.237 259.443ZM579.555 262.535C582.828 261.712 586.12 260.934 589.429 260.204L588.998 258.251C585.669 258.985 582.359 259.767 579.067 260.596L579.555 262.535ZM580.769 263.261L580.281 261.322L578.341 261.81L578.829 263.749L580.769 263.261ZM581.257 265.201L580.769 263.261L578.829 263.749L579.317 265.689L581.257 265.201ZM589.86 262.157C586.57 262.883 583.297 263.656 580.043 264.475L580.531 266.414C583.766 265.6 587.02 264.832 590.291 264.11L589.86 262.157ZM588.668 261.396L589.099 263.349L591.052 262.918L590.621 260.965L588.668 261.396ZM568.505 264.469L569.049 266.394L570.974 265.849L570.429 263.925L568.505 264.469ZM560.021 268.065C563.241 267.051 566.48 266.082 569.739 265.159L569.194 263.235C565.917 264.163 562.658 265.137 559.42 266.157L560.021 268.065ZM561.276 268.718L560.675 266.81L558.767 267.411L559.368 269.319L561.276 268.718ZM561.877 270.626L561.276 268.718L559.368 269.319L559.969 271.227L561.877 270.626ZM570.284 267.084C567.044 268.001 563.823 268.964 560.622 269.972L561.223 271.88C564.405 270.877 567.607 269.92 570.829 269.008L570.284 267.084ZM569.049 266.394L569.594 268.318L571.519 267.773L570.974 265.849L569.049 266.394ZM549.104 270.643L549.761 272.532L551.65 271.875L550.993 269.986L549.104 270.643ZM540.839 274.732C543.997 273.529 547.176 272.371 550.377 271.259L549.72 269.37C546.501 270.489 543.303 271.653 540.127 272.862L540.839 274.732ZM542.129 275.31L541.418 273.441L539.549 274.153L540.26 276.022L542.129 275.31ZM542.841 277.179L542.129 275.31L540.26 276.022L540.972 277.891L542.841 277.179ZM551.034 273.148C547.851 274.254 544.69 275.405 541.551 276.601L542.262 278.47C545.384 277.281 548.526 276.137 551.69 275.037L551.034 273.148ZM549.761 272.532L550.417 274.421L552.306 273.764L551.65 271.875L549.761 272.532ZM530.101 277.941L530.867 279.789L532.714 279.023L531.948 277.175L530.101 277.941ZM522.084 282.509C525.168 281.123 528.276 279.78 531.407 278.482L530.641 276.634C527.492 277.94 524.366 279.291 521.264 280.685L522.084 282.509ZM523.406 283.011L522.586 281.187L520.762 282.007L521.581 283.831L523.406 283.011ZM524.226 284.836L523.406 283.011L521.581 283.831L522.401 285.656L524.226 284.836ZM532.173 280.329C529.06 281.62 525.97 282.955 522.904 284.333L523.723 286.158C526.772 284.788 529.844 283.46 532.94 282.177L532.173 280.329ZM530.867 279.789L531.633 281.636L533.48 280.87L532.714 279.023L530.867 279.789ZM511.555 286.34L512.427 288.139L514.227 287.267L513.354 285.467L511.555 286.34ZM503.817 291.369C506.816 289.805 509.841 288.282 512.891 286.803L512.018 285.004C508.951 286.491 505.909 288.022 502.892 289.596L503.817 291.369ZM505.166 291.793L504.241 290.02L502.468 290.945L503.393 292.718L505.166 291.793ZM506.091 293.566L505.166 291.793L503.393 292.718L504.318 294.491L506.091 293.566ZM513.764 288.603C510.732 290.073 507.724 291.587 504.742 293.142L505.667 294.916C508.632 293.369 511.622 291.864 514.636 290.402L513.764 288.603ZM512.427 288.139L513.3 289.939L515.1 289.066L514.227 287.267L512.427 288.139ZM493.525 295.81L494.502 297.555L496.247 296.579L495.271 294.834L493.525 295.81ZM486.1 301.278C489.002 299.543 491.931 297.848 494.886 296.195L493.91 294.449C490.937 296.112 487.991 297.816 485.073 299.562L486.1 301.278ZM487.471 301.623L486.445 299.907L484.728 300.934L485.755 302.65L487.471 301.623ZM488.498 303.34L487.471 301.623L485.755 302.65L486.782 304.366L488.498 303.34ZM495.863 297.94C492.924 299.584 490.012 301.269 487.126 302.995L488.153 304.711C491.022 302.995 493.917 301.32 496.839 299.686L495.863 297.94ZM494.502 297.556L495.478 299.301L497.224 298.325L496.247 296.579L494.502 297.556ZM476.081 306.313L477.157 307.998L478.843 306.922L477.767 305.237L476.081 306.313ZM468.987 312.203C471.783 310.301 474.608 308.439 477.462 306.618L476.386 304.932C473.516 306.764 470.675 308.636 467.862 310.549L468.987 312.203ZM470.376 312.467L469.252 310.813L467.598 311.938L468.723 313.592L470.376 312.467ZM471.501 314.121L470.376 312.467L468.723 313.592L469.847 315.246L471.501 314.121ZM478.538 308.303C475.701 310.115 472.892 311.966 470.112 313.856L471.236 315.51C474.001 313.63 476.793 311.79 479.614 309.989L478.538 308.303ZM477.157 307.998L478.233 309.684L479.919 308.608L478.843 306.922L477.157 307.998ZM459.277 317.81L460.449 319.431L462.07 318.259L460.898 316.638L459.277 317.81ZM452.535 324.103C455.217 322.042 457.93 320.019 460.673 318.034L459.501 316.414C456.743 318.41 454.014 320.444 451.316 322.517L452.535 324.103ZM453.937 324.287L452.718 322.701L451.133 323.919L452.351 325.505L453.937 324.287ZM455.156 325.873L453.937 324.287L452.351 325.505L453.57 327.091L455.156 325.873ZM461.846 319.655C459.118 321.628 456.421 323.639 453.754 325.689L454.972 327.275C457.624 325.237 460.306 323.237 463.018 321.275L461.846 319.655ZM460.449 319.431L461.622 321.051L463.242 319.879L462.07 318.259L460.449 319.431ZM443.168 330.262L444.432 331.812L445.982 330.548L444.718 328.998L443.168 330.262ZM436.801 336.936C439.36 334.722 441.952 332.545 444.575 330.405L443.311 328.855C440.673 331.007 438.066 333.197 435.492 335.423L436.801 336.936ZM438.211 337.038L436.903 335.525L435.39 336.833L436.699 338.346L438.211 337.038ZM439.52 338.55L438.211 337.038L436.698 338.346L438.007 339.859L439.52 338.55ZM445.84 331.955C443.231 334.082 440.654 336.247 438.109 338.448L439.417 339.961C441.948 337.772 444.51 335.62 447.104 333.505L445.84 331.955ZM444.433 331.812L445.697 333.362L447.246 332.098L445.982 330.548L444.433 331.812ZM427.806 343.626L429.158 345.1L430.632 343.749L429.28 342.274L427.806 343.626ZM421.835 350.656C424.263 348.298 426.724 345.975 429.219 343.687L427.868 342.213C425.358 344.513 422.883 346.85 420.442 349.222L421.835 350.656ZM423.249 350.677L421.856 349.242L420.421 350.636L421.815 352.07L423.249 350.677ZM424.643 352.111L423.249 350.677L421.815 352.07L423.208 353.505L424.643 352.111ZM430.571 345.161C428.09 347.436 425.642 349.746 423.229 352.091L424.622 353.525C427.022 351.194 429.456 348.897 431.922 346.636L430.571 345.161ZM429.158 345.1L430.509 346.574L431.984 345.223L430.632 343.749L429.158 345.1ZM413.242 357.856L414.677 359.249L416.07 357.815L414.636 356.421L413.242 357.856ZM407.687 365.219C409.975 362.724 412.298 360.263 414.656 357.835L413.222 356.441C410.85 358.883 408.514 361.358 406.213 363.868L407.687 365.219ZM409.1 365.158L407.626 363.806L406.274 365.28L407.749 366.632L409.1 365.158ZM410.574 366.509L409.1 365.158L407.749 366.632L409.223 367.984L410.574 366.509ZM416.091 359.229C413.746 361.642 411.436 364.09 409.161 366.571L410.636 367.922C412.897 365.456 415.194 363.022 417.525 360.622L416.091 359.229ZM414.677 359.249L416.111 360.643L417.505 359.208L416.07 357.815L414.677 359.249ZM399.525 372.903L401.038 374.211L402.346 372.698L400.834 371.39L399.525 372.903ZM394.405 380.575C396.545 377.952 398.722 375.36 400.936 372.801L399.423 371.492C397.197 374.066 395.007 376.673 392.855 379.311L394.405 380.575ZM395.812 380.432L394.262 379.168L392.998 380.718L394.548 381.982L395.812 380.432ZM397.362 381.696L395.812 380.432L394.548 381.982L396.098 383.246L397.362 381.696ZM402.448 374.109C400.247 376.654 398.082 379.231 395.955 381.839L397.505 383.103C399.62 380.51 401.772 377.948 403.961 375.417L402.448 374.109ZM401.038 374.211L402.55 375.519L403.859 374.007L402.346 372.698L401.038 374.211ZM386.701 388.718L388.287 389.937L389.505 388.351L387.92 387.133L386.701 388.718ZM382.034 396.673C384.019 393.93 386.042 391.217 388.103 388.535L386.517 387.316C384.444 390.014 382.41 392.743 380.414 395.501L382.034 396.673ZM383.431 396.449L381.81 395.277L380.638 396.898L382.259 398.07L383.431 396.449ZM385.051 397.622L383.431 396.449L382.259 398.07L383.879 399.242L385.051 397.622ZM389.689 389.753C387.639 392.421 385.628 395.118 383.655 397.846L385.275 399.018C387.237 396.306 389.237 393.624 391.275 390.972L389.689 389.753ZM388.287 389.937L389.873 391.156L391.091 389.57L389.505 388.351L388.287 389.937ZM374.813 405.252L376.467 406.376L377.592 404.722L375.938 403.598L374.813 405.252ZM370.618 413.462C372.439 410.608 374.301 407.783 376.203 404.987L374.549 403.862C372.636 406.674 370.764 409.516 368.932 412.386L370.618 413.462ZM371.999 413.157L370.313 412.081L369.237 413.767L370.922 414.843L371.999 413.157ZM373.684 414.233L371.999 413.157L370.922 414.843L372.608 415.919L373.684 414.233ZM377.856 406.112C375.966 408.892 374.115 411.701 372.303 414.538L373.989 415.614C375.79 412.793 377.63 410 379.51 407.236L377.856 406.112ZM376.467 406.376L378.121 407.501L379.246 405.847L377.592 404.722L376.467 406.376ZM363.907 422.444L365.623 423.471L366.65 421.755L364.934 420.728L363.907 422.444ZM360.195 430.886C361.848 427.931 363.543 425.001 365.278 422.1L363.562 421.073C361.816 423.991 360.112 426.937 358.449 429.91L360.195 430.886ZM361.556 430.502L359.81 429.525L358.834 431.271L360.579 432.247L361.556 430.502ZM363.301 431.478L361.556 430.502L360.579 432.247L362.325 433.224L363.301 431.478ZM366.995 423.126C365.269 426.012 363.584 428.924 361.94 431.863L363.686 432.839C365.32 429.917 366.995 427.022 368.711 424.153L366.995 423.126ZM365.623 423.471L367.34 424.498L368.366 422.781L366.65 421.755L365.623 423.471ZM354.02 440.241L355.793 441.166L356.718 439.393L354.945 438.468L354.02 440.241ZM350.803 448.891C352.282 445.841 353.805 442.816 355.369 439.817L353.596 438.892C352.022 441.909 350.491 444.951 349.004 448.018L350.803 448.891ZM352.139 448.427L350.34 447.555L349.467 449.354L351.267 450.227L352.139 448.427ZM353.939 449.3L352.139 448.427L351.267 450.227L353.066 451.1L353.939 449.3ZM357.142 440.742C355.587 443.724 354.073 446.731 352.603 449.764L354.402 450.636C355.864 447.622 357.369 444.632 358.916 441.667L357.142 440.742ZM355.793 441.166L357.566 442.091L358.491 440.318L356.718 439.393L355.793 441.166ZM345.187 458.586L347.012 459.406L347.831 457.581L346.007 456.761L345.187 458.586ZM342.482 467.407C343.78 464.276 345.123 461.168 346.509 458.083L344.685 457.264C343.291 460.366 341.94 463.492 340.634 466.641L342.482 467.407ZM343.789 466.867L341.941 466.1L341.175 467.948L343.023 468.714L343.789 466.867ZM345.636 467.633L343.789 466.867L343.023 468.714L344.87 469.48L345.636 467.633ZM348.334 458.903C346.955 461.97 345.62 465.06 344.329 468.173L346.177 468.939C347.46 465.844 348.788 462.772 350.158 459.723L348.334 458.903ZM347.011 459.406L348.836 460.225L349.656 458.401L347.831 457.581L347.011 459.406ZM337.441 477.418L339.31 478.129L340.022 476.26L338.153 475.548L337.441 477.418ZM335.259 486.377C336.372 483.176 337.529 479.996 338.732 476.839L336.863 476.127C335.653 479.303 334.489 482.501 333.37 485.72L335.259 486.377ZM336.532 485.761L334.643 485.104L333.986 486.993L335.875 487.65L336.532 485.761ZM338.421 486.417L336.532 485.761L335.875 487.65L337.764 488.306L338.421 486.417ZM340.601 477.551C339.405 480.69 338.254 483.851 337.148 487.034L339.037 487.69C340.137 484.526 341.281 481.383 342.47 478.262L340.601 477.551ZM339.31 478.129L341.179 478.841L341.891 476.972L340.022 476.26L339.31 478.129ZM330.81 496.675L332.718 497.276L333.319 495.368L331.411 494.767L330.81 496.675ZM329.159 505.739C330.082 502.48 331.051 499.241 332.065 496.021L330.157 495.42C329.137 498.658 328.163 501.917 327.235 505.194L329.159 505.739ZM330.394 505.049L328.469 504.505L327.925 506.429L329.849 506.974L330.394 505.049ZM332.318 505.594L330.394 505.049L329.849 506.974L331.773 507.518L332.318 505.594ZM333.972 496.622C332.964 499.823 332.001 503.044 331.084 506.284L333.008 506.829C333.92 503.607 334.877 500.405 335.88 497.223L333.972 496.622ZM332.718 497.275L334.626 497.876L335.227 495.969L333.319 495.368L332.718 497.275Z" fill="black" mask="url(#path-1-inside-1_2_50)"/>
</svg>
